<?xml version="1.0" encoding="iso-8859-1"?>
<!-- Uploaded to: SVG Repo, www.svgrepo.com, Generator: SVG Repo Mixer Tools -->
<svg version="1.1" id="Capa_1" xmlns="http://www.w3.org/2000/svg" xmlns:xlink="http://www.w3.org/1999/xlink" 
	 viewBox="0 0 431.59 431.59" xml:space="preserve">
<g>
	<g id="XMLID_1_">
		<g>
			<path style="fill:#7EE085;" d="M269.55,269.15c7.43,7.43,11.14,17.15,11.14,26.88s-3.71,19.45-11.14,26.88l-53.75,53.75
				l-53.76-53.75c-7.42-7.43-11.13-17.15-11.13-26.88s3.71-19.45,11.13-26.88c14.84-14.84,38.91-14.84,53.76,0
				c7.42-7.42,17.15-11.13,26.88-11.13C252.4,258.02,262.13,261.73,269.55,269.15z"/>
			<path style="fill:#7EE085;" d="M205.85,149.4H76.87v-0.49c6.38-7.87,14.07-14.63,22.72-19.95c10.94-6.73,23.44-11.16,36.83-12.64
				c1.92,2.39,4,4.69,6.22,6.91C160.1,140.68,182.97,149.4,205.85,149.4z"/>
			<path style="fill:#7EE085;" d="M354.71,148.91v0.49H225.73c22.88,0,45.76-8.72,63.21-26.17c2.22-2.22,4.3-4.53,6.23-6.91
				c13.39,1.48,25.87,5.91,36.81,12.64C340.64,134.28,348.33,141.04,354.71,148.91z"/>
			<path style="fill:#7EE085;" d="M342.33,76.91c1.85,17.76-1.59,35.97-10.35,52.05c-10.94-6.73-23.42-11.16-36.81-12.64
				c9.15-11.25,15.14-24.2,17.99-37.68C322.74,76.47,332.6,75.89,342.33,76.91z"/>
			<path style="fill:#7EE085;" d="M215.66,138.32c-0.31-22.46-9.02-44.82-26.15-61.96c-2.12-2.12-4.33-4.12-6.61-5.98l0.24-0.29
				c1.31-12.56,5.21-24.34,11.18-34.79c5.53-9.72,12.83-18.3,21.47-25.3c8.64,7,15.94,15.58,21.46,25.29
				c5.97,10.46,9.88,22.24,11.19,34.8l0.25,0.29c-2.28,1.86-4.49,3.86-6.61,5.98c-17.14,17.14-25.85,39.5-26.16,61.96
				c-0.04,0.02-0.08,0.03-0.13,0.04C215.74,138.35,215.7,138.34,215.66,138.32z"/>
			<path style="fill:#7EE085;" d="M118.43,78.64c2.84,13.49,8.84,26.44,17.99,37.68c-13.39,1.48-25.89,5.91-36.83,12.64
				c-8.76-16.09-12.2-34.29-10.34-52.05C98.98,75.89,108.85,76.47,118.43,78.64z"/>
			<path style="fill:#7FDDD3;" d="M273.28,21.41c3.91,10.42,5.88,21.52,5.73,32.71c-10.83,3.31-21.15,8.73-30.32,16.26l-0.25-0.29
				c-1.31-12.56-5.22-24.34-11.19-34.8C248.15,28.07,260.47,23.36,273.28,21.41z"/>
			<path style="fill:#7FDDD3;" d="M194.32,35.3c-5.97,10.45-9.87,22.23-11.18,34.79l-0.24,0.29c-9.17-7.53-19.5-12.95-30.34-16.26
				c-0.14-11.19,1.83-22.29,5.74-32.71C171.1,23.36,183.42,28.07,194.32,35.3z"/>
			<path style="fill:#7FDDD3;" d="M313.16,78.64c-2.85,13.48-8.84,26.43-17.99,37.68c-1.93,2.38-4.01,4.69-6.23,6.91
				c-17.45,17.45-40.33,26.17-63.21,26.17c-3.12,0-6.23-0.17-9.34-0.49c-0.01-0.05-0.01-0.11-0.01-0.16
				c-0.36-3.44-0.51-6.9-0.46-10.35c-0.01-0.03-0.01-0.06,0-0.08c0.31-22.46,9.02-44.82,26.16-61.96c2.12-2.12,4.33-4.12,6.61-5.98
				c9.17-7.53,19.49-12.95,30.32-16.26c11.55-3.54,23.68-4.68,35.61-3.44C315.6,60,315.11,69.44,313.16,78.64z"/>
			<path style="fill:#7FDDD3;" d="M215.2,148.75c0,0.05,0,0.11-0.01,0.16c-3.11,0.32-6.22,0.49-9.34,0.49
				c-22.88,0-45.75-8.72-63.21-26.17c-2.22-2.22-4.3-4.52-6.22-6.91c-9.15-11.24-15.15-24.19-17.99-37.68
				c-1.96-9.19-2.44-18.64-1.47-27.96c11.92-1.24,24.05-0.1,35.6,3.44c10.84,3.31,21.17,8.73,30.34,16.26
				c2.28,1.86,4.49,3.86,6.61,5.98c17.13,17.14,25.84,39.5,26.15,61.96c0.01,0.02,0.01,0.05,0,0.08
				C215.71,141.85,215.56,145.31,215.2,148.75z"/>
			<polygon style="fill:#F297D6;" points="407.32,149.4 407.32,213.09 384.54,213.09 47.05,213.09 24.27,213.09 24.27,149.4 
				76.87,149.4 205.85,149.4 215.79,149.4 225.73,149.4 354.71,149.4 			"/>
			<path style="fill:#F297D6;" d="M384.54,213.1v208.49H47.05V213.1v-0.01h337.49V213.1z M280.69,296.03
				c0-9.73-3.71-19.45-11.14-26.88c-7.42-7.42-17.15-11.13-26.87-11.13c-9.73,0-19.46,3.71-26.88,11.13
				c-14.85-14.84-38.92-14.84-53.76,0c-7.42,7.43-11.13,17.15-11.13,26.88s3.71,19.45,11.13,26.88l53.76,53.75l53.75-53.75
				C276.98,315.48,280.69,305.76,280.69,296.03z"/>
		</g>
		<g>
			<path style="fill:none;stroke:#000000;stroke-width:20;stroke-linejoin:round;stroke-miterlimit:10;" d="M215.8,269.15
				c-14.85-14.84-38.92-14.84-53.76,0c-7.42,7.43-11.13,17.15-11.13,26.88s3.71,19.45,11.13,26.88l53.76,53.75l53.75-53.75
				c7.43-7.43,11.14-17.15,11.14-26.88s-3.71-19.45-11.14-26.88c-7.42-7.42-17.15-11.13-26.87-11.13
				C232.95,258.02,223.22,261.73,215.8,269.15z"/>
			<polyline style="fill:none;stroke:#000000;stroke-width:20;stroke-linejoin:round;stroke-miterlimit:10;" points="384.54,213.1 
				384.54,421.59 47.05,421.59 47.05,213.1 			"/>
			<polygon style="fill:none;stroke:#000000;stroke-width:20;stroke-linejoin:round;stroke-miterlimit:10;" points="354.71,149.4 
				407.32,149.4 407.32,213.09 384.54,213.09 47.05,213.09 24.27,213.09 24.27,149.4 76.87,149.4 205.85,149.4 215.79,149.4 
				225.73,149.4 			"/>
			<path style="fill:none;stroke:#000000;stroke-width:20;stroke-linejoin:round;stroke-miterlimit:10;" d="M215.66,138.32
				c-0.31-22.46-9.02-44.82-26.15-61.96c-2.12-2.12-4.33-4.12-6.61-5.98c-9.17-7.53-19.5-12.95-30.34-16.26
				c-11.55-3.54-23.68-4.68-35.6-3.44c-0.97,9.32-0.49,18.77,1.47,27.96c2.84,13.49,8.84,26.44,17.99,37.68
				c1.92,2.39,4,4.69,6.22,6.91c17.46,17.45,40.33,26.17,63.21,26.17c3.12,0,6.23-0.17,9.34-0.49c0.01-0.05,0.01-0.11,0.01-0.16
				c0.36-3.44,0.51-6.9,0.46-10.35C215.67,138.37,215.67,138.34,215.66,138.32z"/>
			<path style="fill:none;stroke:#000000;stroke-width:20;stroke-linejoin:round;stroke-miterlimit:10;" d="M215.92,138.4
				c-0.05-0.01-0.09-0.02-0.13-0.04c-0.05-0.01-0.09-0.02-0.13-0.04"/>
			<path style="fill:none;stroke:#000000;stroke-width:20;stroke-linejoin:round;stroke-miterlimit:10;" d="M152.56,54.12
				c-0.14-11.19,1.83-22.29,5.74-32.71c12.8,1.95,25.12,6.66,36.02,13.89"/>
			<path style="fill:none;stroke:#000000;stroke-width:20;stroke-linejoin:round;stroke-miterlimit:10;" d="M237.25,35.29
				c10.9-7.22,23.22-11.93,36.03-13.88c3.91,10.42,5.88,21.52,5.73,32.71"/>
			<path style="fill:none;stroke:#000000;stroke-width:20;stroke-linejoin:round;stroke-miterlimit:10;" d="M215.92,138.32
				c-0.04,0.02-0.08,0.03-0.13,0.04c-0.04,0.02-0.09,0.03-0.13,0.04"/>
			<path style="fill:none;stroke:#000000;stroke-width:20;stroke-linejoin:round;stroke-miterlimit:10;" d="M183.14,70.09
				c1.31-12.56,5.21-24.34,11.18-34.79c5.53-9.72,12.83-18.3,21.47-25.3c8.64,7,15.94,15.58,21.46,25.29
				c5.97,10.46,9.88,22.24,11.19,34.8"/>
			<path style="fill:none;stroke:#000000;stroke-width:20;stroke-linejoin:round;stroke-miterlimit:10;" d="M225.73,149.4
				c22.88,0,45.76-8.72,63.21-26.17c2.22-2.22,4.3-4.53,6.23-6.91c9.15-11.25,15.14-24.2,17.99-37.68
				c1.95-9.2,2.44-18.64,1.46-27.96c-11.93-1.24-24.06-0.1-35.61,3.44c-10.83,3.31-21.15,8.73-30.32,16.26
				c-2.28,1.86-4.49,3.86-6.61,5.98c-17.14,17.14-25.85,39.5-26.16,61.96c-0.01,0.02-0.01,0.05,0,0.08
				c-0.05,3.45,0.1,6.91,0.46,10.35c0,0.05,0,0.11,0.01,0.16C219.5,149.23,222.61,149.4,225.73,149.4z"/>
			<path style="fill:none;stroke:#000000;stroke-width:20;stroke-linejoin:round;stroke-miterlimit:10;" d="M313.15,78.64h0.01
				c9.58-2.17,19.44-2.75,29.17-1.73c1.85,17.76-1.59,35.97-10.35,52.05"/>
			<path style="fill:none;stroke:#000000;stroke-width:20;stroke-linejoin:round;stroke-miterlimit:10;" d="M99.59,128.96
				c-8.76-16.09-12.2-34.29-10.34-52.05c9.73-1.02,19.6-0.44,29.18,1.73"/>
			<path style="fill:none;stroke:#000000;stroke-width:20;stroke-linejoin:round;stroke-miterlimit:10;" d="M294.61,116.26
				c0.19,0.02,0.37,0.04,0.56,0.06c13.39,1.48,25.87,5.91,36.81,12.64c8.66,5.32,16.35,12.08,22.73,19.95"/>
			<path style="fill:none;stroke:#000000;stroke-width:20;stroke-linejoin:round;stroke-miterlimit:10;" d="M76.87,148.91
				c6.38-7.87,14.07-14.63,22.72-19.95c10.94-6.73,23.44-11.16,36.83-12.64c0.18-0.02,0.37-0.04,0.55-0.06"/>
			
				<polyline style="fill:none;stroke:#000000;stroke-width:20;stroke-linecap:round;stroke-linejoin:round;stroke-miterlimit:10;" points="
				263.03,97.19 216.38,148.75 215.79,149.4 215.2,148.75 168.56,97.19 			"/>
		</g>
	</g>
</g>
</svg>