<?xml version="1.0" standalone="no"?>
<!DOCTYPE svg PUBLIC "-//W3C//DTD SVG 20010904//EN"
 "http://www.w3.org/TR/2001/REC-SVG-20010904/DTD/svg10.dtd">
<svg version="1.0" xmlns="http://www.w3.org/2000/svg"
 width="1280.000000pt" height="1280.000000pt" viewBox="0 0 1280.000000 1280.000000"
 preserveAspectRatio="xMidYMid meet">
<metadata>
Created by potrace 1.15, written by Peter Selinger 2001-2017
</metadata>
<g transform="translate(0.000000,1280.000000) scale(0.100000,-0.100000)"
fill="#fa3a7c" stroke="none">
<path d="M7913 12504 c-540 -118 -1050 -846 -1312 -1871 -115 -454 -179 -883
-223 -1498 -15 -218 -15 -1102 0 -1320 6 -82 8 -152 6 -154 -11 -11 -19 25
-50 226 -249 1634 -735 2897 -1403 3647 -520 584 -1126 747 -1471 396 -288
-293 -317 -888 -74 -1557 333 -920 1084 -1914 2224 -2949 63 -57 75 -73 57
-75 -5 -1 -64 39 -130 88 -1582 1166 -3097 1745 -4109 1568 -269 -47 -491
-154 -634 -307 -299 -320 -184 -807 285 -1200 521 -436 1369 -730 2461 -852
391 -44 547 -51 1193 -51 461 0 627 -3 627 -11 0 -7 -21 -15 -47 -18 -977
-138 -1929 -404 -2657 -743 -989 -461 -1615 -1109 -1618 -1673 -1 -190 53
-322 183 -452 123 -122 298 -198 527 -229 122 -16 397 -6 542 21 778 142 1661
647 2585 1479 185 167 549 525 710 700 100 108 122 127 134 116 11 -11 -9 -44
-121 -201 -852 -1197 -1347 -2289 -1453 -3208 -18 -162 -21 -461 -5 -591 41
-333 144 -573 317 -735 128 -121 253 -173 418 -173 125 0 210 20 332 78 131
62 231 134 353 255 436 432 763 1214 914 2190 82 526 101 813 101 1527 0 497
2 594 14 598 8 3 15 4 16 3 1 -2 15 -79 29 -173 171 -1078 490 -2084 882
-2782 439 -784 988 -1263 1479 -1290 342 -18 592 186 692 565 34 129 44 416
19 589 -84 606 -409 1288 -960 2021 -365 484 -824 978 -1386 1490 -36 32 -42
42 -29 47 11 4 77 -38 200 -126 1182 -849 2280 -1354 3234 -1485 182 -25 580
-26 715 -1 318 59 519 153 669 313 105 113 172 275 171 416 -2 216 -126 465
-339 677 -705 704 -2251 1081 -4144 1011 -305 -11 -361 -10 -346 4 3 3 97 19
209 36 1525 233 2753 685 3503 1289 589 475 835 1015 641 1406 -168 341 -638
477 -1244 359 -466 -90 -982 -321 -1535 -689 -638 -424 -1213 -937 -1937
-1730 -20 -22 -39 -37 -43 -33 -3 3 52 84 123 179 660 888 1134 1750 1392
2529 237 716 282 1347 130 1801 -98 293 -288 494 -525 554 -72 18 -207 18
-292 -1z"/>
</g>
</svg>
